D:\school\WTK\thesis\model\3dpredictsim\Results\batch_windlass\Pog_s1_tmt_bCst_d05_k500_WL20_ig24_pas_GRF.mot
nRows=12
nColumns=19

name D:\school\WTK\thesis\model\3dpredictsim\Results\batch_windlass\Pog_s1_tmt_bCst_d05_k500_WL20_ig24_pas_GRF.mot
datacolumns 19
datarows 12
range 0.0000000000 0.1191866002
endheader
time 	ground_force_vx	ground_force_vy	ground_force_vz	ground_force_px	ground_force_py	ground_force_pz	1_ground_force_vx	1_ground_force_vy	1_ground_force_vz	1_ground_force_px	1_ground_force_py	1_ground_force_pz	ground_torque_x	ground_torque_y	ground_torque_z	1_ground_torque_x	1_ground_torque_y	1_ground_torque_z
        0.0000000000	      -90.5914618394	       75.3491175008	       31.5999928132	        0.1360943452	        0.0000000000	        0.0417779718	       88.2149660220	      418.6947126497	       -3.5709360587	       -0.3359220005	        0.0000000000	       -0.0326002072	        0.0000000000	        0.0000000000	        0.0000000000	        0.0000000000	        0.0000000000	        0.0000000000	
        0.0108351455	     -140.3648355633	      157.3767092135	       72.8236904211	        0.1463292299	        0.0000000000	        0.0405700778	       60.0948946582	      320.6571809933	      -12.4666374111	       -0.3292434161	        0.0000000000	       -0.0298877299	        0.0000000000	        0.0000000000	        0.0000000000	        0.0000000000	        0.0000000000	        0.0000000000	
        0.0216702909	      -68.4104671289	      362.8230853033	       28.8337800550	        0.1601721742	        0.0000000000	        0.0411732052	       29.4933664391	      217.6410637591	      -13.5657773368	       -0.3176262724	        0.0000000000	       -0.0241007349	        0.0000000000	        0.0000000000	        0.0000000000	        0.0000000000	        0.0000000000	        0.0000000000	
        0.0325054364	      -69.9947729825	      606.5129971473	       -3.6090912829	        0.1683868462	        0.0000000000	        0.0423976703	        9.9533171249	      157.9980185689	      -13.4677801138	       -0.3074503619	        0.0000000000	       -0.0180761732	        0.0000000000	        0.0000000000	        0.0000000000	        0.0000000000	        0.0000000000	        0.0000000000	
        0.0433405819	      -98.5237260064	      802.2499587831	      -13.1186747798	        0.1762966595	        0.0000000000	        0.0427370320	        3.0471021088	      124.3384522144	      -12.0661220913	       -0.3075724473	        0.0000000000	       -0.0181694734	        0.0000000000	        0.0000000000	        0.0000000000	        0.0000000000	        0.0000000000	        0.0000000000	
        0.0541757274	     -124.9751199557	      923.5323506622	      -15.1530082676	        0.1860146139	        0.0000000000	        0.0422438767	       -2.7551488138	       82.2833814941	      -10.3890632699	       -0.3073669520	        0.0000000000	       -0.0181760014	        0.0000000000	        0.0000000000	        0.0000000000	        0.0000000000	        0.0000000000	        0.0000000000	
        0.0650108728	     -130.4968935849	      943.0470504681	      -12.9734041118	        0.1925227976	        0.0000000000	        0.0415584845	      -10.4306056443	       32.8754292219	       -5.6747637222	       -0.3083097495	        0.0000000000	       -0.0181305791	        0.0000000000	        0.0000000000	        0.0000000000	        0.0000000000	        0.0000000000	        0.0000000000	
        0.0758460183	     -117.6022099030	      902.3492224725	      -12.0417099795	        0.1961917958	        0.0000000000	        0.0410272641	        0.0993732964	       -0.1000586558	        0.0045742748	        0.0000000000	        0.0000000000	        0.0000000000	        0.0000000000	        0.0000000000	        0.0000000000	        0.0000000000	        0.0000000000	        0.0000000000	
        0.0866811638	      -99.8702348067	      841.5445136871	      -12.6144237661	        0.1993099221	        0.0000000000	        0.0406166422	        0.0001483880	       -0.0001232568	       -0.0000040274	        0.0000000000	        0.0000000000	        0.0000000000	        0.0000000000	        0.0000000000	        0.0000000000	        0.0000000000	        0.0000000000	        0.0000000000	
        0.0975163092	      -84.7556677185	      783.8731402259	      -13.3786281334	        0.2024039007	        0.0000000000	        0.0403296524	        0.0000280071	       -0.0000201263	       -0.0000013875	        0.0000000000	        0.0000000000	        0.0000000000	        0.0000000000	        0.0000000000	        0.0000000000	        0.0000000000	        0.0000000000	        0.0000000000	
        0.1083514547	      -71.7005902045	      735.9332431580	      -14.1407005255	        0.2055251520	        0.0000000000	        0.0401528880	        0.0001329753	       -0.0000855232	       -0.0000081254	        0.0000000000	        0.0000000000	        0.0000000000	        0.0000000000	        0.0000000000	        0.0000000000	        0.0000000000	        0.0000000000	        0.0000000000	
        0.1191866002	      -60.2497647577	      696.9127361164	      -14.9782257862	        0.2087754672	        0.0000000000	        0.0400593544	        0.0031989627	       -0.0018860217	       -0.0002204085	        0.0000000000	        0.0000000000	        0.0000000000	        0.0000000000	        0.0000000000	        0.0000000000	        0.0000000000	        0.0000000000	        0.0000000000	
